<svg width="20" height="20" viewBox="0 0 20 20" fill="none" xmlns="http://www.w3.org/2000/svg">
<g filter="url(#filter0_d_6_1125)">
<circle cx="10" cy="10" r="9" fill="#3C82C2"/>
</g>
<path d="M3.02319 9.31427C3.07231 8.50837 3.09687 8.10543 3.30569 7.71786C3.49649 7.36375 3.86153 7.02028 4.22659 6.85138C4.62614 6.66653 5.08411 6.66653 6.00005 6.66653C6.34143 6.66653 6.51213 6.66653 6.67747 6.63861C6.84092 6.611 7.00031 6.56319 7.15197 6.49625C7.30537 6.42855 7.44787 6.33459 7.73288 6.14668L7.87883 6.05044C9.57414 4.93265 10.4218 4.37375 11.1334 4.61658C11.2698 4.66313 11.4019 4.73034 11.5198 4.81323C12.1349 5.24553 12.1817 6.25133 12.2751 8.26293C12.3097 9.0078 12.3333 9.64527 12.3333 9.99987C12.3333 10.3545 12.3097 10.9919 12.2751 11.7368C12.1817 13.7484 12.1349 14.7542 11.5198 15.1865C11.4019 15.2694 11.2698 15.3366 11.1334 15.3831C10.4218 15.6259 9.57414 15.0671 7.87883 13.9493L7.73288 13.8531C7.44787 13.6651 7.30537 13.5711 7.15197 13.5035C7.00031 13.4365 6.84092 13.3887 6.67747 13.3611C6.51213 13.3332 6.34143 13.3332 6.00005 13.3332C5.08411 13.3332 4.62614 13.3332 4.22659 13.1483C3.86153 12.9795 3.49649 12.6359 3.30569 12.2819C3.09687 11.8943 3.07231 11.4913 3.02319 10.6855C3.00866 10.4471 3 10.2148 3 9.99987C3 9.78493 3.00866 9.55267 3.02319 9.31427Z" stroke="white"/>
<path d="M15.3333 6C15.3333 6 16.3333 7.2 16.3333 10C16.3333 12.8 15.3333 14 15.3333 14" stroke="white" stroke-linecap="round"/>
<path d="M14 8C14 8 14.3333 8.6 14.3333 10C14.3333 11.4 14 12 14 12" stroke="white" stroke-linecap="round"/>
<defs>
<filter id="filter0_d_6_1125" x="0" y="0" width="20" height="20" filterUnits="userSpaceOnUse" color-interpolation-filters="sRGB">
<feFlood flood-opacity="0" result="BackgroundImageFix"/>
<feColorMatrix in="SourceAlpha" type="matrix" values="0 0 0 0 0 0 0 0 0 0 0 0 0 0 0 0 0 0 127 0" result="hardAlpha"/>
<feOffset/>
<feGaussianBlur stdDeviation="0.5"/>
<feComposite in2="hardAlpha" operator="out"/>
<feColorMatrix type="matrix" values="0 0 0 0 0.235294 0 0 0 0 0.509804 0 0 0 0 0.760784 0 0 0 0.25 0"/>
<feBlend mode="normal" in2="BackgroundImageFix" result="effect1_dropShadow_6_1125"/>
<feBlend mode="normal" in="SourceGraphic" in2="effect1_dropShadow_6_1125" result="shape"/>
</filter>
</defs>
</svg>
