<svg width="300" height="510" viewBox="0 0 300 510" fill="none" xmlns="http://www.w3.org/2000/svg">
<g filter="url(#filter0_d_22_4971)">
<path fill-rule="evenodd" clip-rule="evenodd" d="M76.6047 98.4657C75.0482 94.1502 71.1125 91 66.5249 91H20C14.4771 91 10 95.4771 10 101V488C10 493.523 14.4771 498 20 498H280C285.523 498 290 493.523 290 488V101C290 95.4772 285.523 91 280 91H233.475C228.887 91 224.952 94.1502 223.395 98.4657C212.557 128.517 183.787 150 150 150C116.213 150 87.4428 128.517 76.6047 98.4657Z" fill="white"/>
</g>
<g filter="url(#filter1_dd_22_4971)">
<rect x="58.5" y="426" width="183" height="48" rx="24" fill="#B0C255"/>
<path d="M102.715 451.637H98.2734V449.305H102.715C103.488 449.305 104.113 449.18 104.59 448.93C105.066 448.68 105.414 448.336 105.633 447.898C105.859 447.453 105.973 446.945 105.973 446.375C105.973 445.836 105.859 445.332 105.633 444.863C105.414 444.387 105.066 444.004 104.59 443.715C104.113 443.426 103.488 443.281 102.715 443.281H99.1758V458H96.2344V440.938H102.715C104.035 440.938 105.156 441.172 106.078 441.641C107.008 442.102 107.715 442.742 108.199 443.562C108.684 444.375 108.926 445.305 108.926 446.352C108.926 447.453 108.684 448.398 108.199 449.188C107.715 449.977 107.008 450.582 106.078 451.004C105.156 451.426 104.035 451.637 102.715 451.637ZM114.305 440V458H111.469V440H114.305ZM124.547 455.457V449.41C124.547 448.957 124.465 448.566 124.301 448.238C124.137 447.91 123.887 447.656 123.551 447.477C123.223 447.297 122.809 447.207 122.309 447.207C121.848 447.207 121.449 447.285 121.113 447.441C120.777 447.598 120.516 447.809 120.328 448.074C120.141 448.34 120.047 448.641 120.047 448.977H117.234C117.234 448.477 117.355 447.992 117.598 447.523C117.84 447.055 118.191 446.637 118.652 446.27C119.113 445.902 119.664 445.613 120.305 445.402C120.945 445.191 121.664 445.086 122.461 445.086C123.414 445.086 124.258 445.246 124.992 445.566C125.734 445.887 126.316 446.371 126.738 447.02C127.168 447.66 127.383 448.465 127.383 449.434V455.07C127.383 455.648 127.422 456.168 127.5 456.629C127.586 457.082 127.707 457.477 127.863 457.812V458H124.969C124.836 457.695 124.73 457.309 124.652 456.84C124.582 456.363 124.547 455.902 124.547 455.457ZM124.957 450.289L124.98 452.035H122.953C122.43 452.035 121.969 452.086 121.57 452.188C121.172 452.281 120.84 452.422 120.574 452.609C120.309 452.797 120.109 453.023 119.977 453.289C119.844 453.555 119.777 453.855 119.777 454.191C119.777 454.527 119.855 454.836 120.012 455.117C120.168 455.391 120.395 455.605 120.691 455.762C120.996 455.918 121.363 455.996 121.793 455.996C122.371 455.996 122.875 455.879 123.305 455.645C123.742 455.402 124.086 455.109 124.336 454.766C124.586 454.414 124.719 454.082 124.734 453.77L125.648 455.023C125.555 455.344 125.395 455.688 125.168 456.055C124.941 456.422 124.645 456.773 124.277 457.109C123.918 457.438 123.484 457.707 122.977 457.918C122.477 458.129 121.898 458.234 121.242 458.234C120.414 458.234 119.676 458.07 119.027 457.742C118.379 457.406 117.871 456.957 117.504 456.395C117.137 455.824 116.953 455.18 116.953 454.461C116.953 453.789 117.078 453.195 117.328 452.68C117.586 452.156 117.961 451.719 118.453 451.367C118.953 451.016 119.562 450.75 120.281 450.57C121 450.383 121.82 450.289 122.742 450.289H124.957ZM133.828 456.617L137.273 445.32H140.297L135.211 459.934C135.094 460.246 134.941 460.586 134.754 460.953C134.566 461.32 134.32 461.668 134.016 461.996C133.719 462.332 133.348 462.602 132.902 462.805C132.457 463.016 131.918 463.121 131.285 463.121C131.035 463.121 130.793 463.098 130.559 463.051C130.332 463.012 130.117 462.969 129.914 462.922L129.902 460.766C129.98 460.773 130.074 460.781 130.184 460.789C130.301 460.797 130.395 460.801 130.465 460.801C130.934 460.801 131.324 460.742 131.637 460.625C131.949 460.516 132.203 460.336 132.398 460.086C132.602 459.836 132.773 459.5 132.914 459.078L133.828 456.617ZM131.883 445.32L134.895 454.812L135.398 457.789L133.441 458.293L128.836 445.32H131.883ZM155.039 455.457V449.41C155.039 448.957 154.957 448.566 154.793 448.238C154.629 447.91 154.379 447.656 154.043 447.477C153.715 447.297 153.301 447.207 152.801 447.207C152.34 447.207 151.941 447.285 151.605 447.441C151.27 447.598 151.008 447.809 150.82 448.074C150.633 448.34 150.539 448.641 150.539 448.977H147.727C147.727 448.477 147.848 447.992 148.09 447.523C148.332 447.055 148.684 446.637 149.145 446.27C149.605 445.902 150.156 445.613 150.797 445.402C151.438 445.191 152.156 445.086 152.953 445.086C153.906 445.086 154.75 445.246 155.484 445.566C156.227 445.887 156.809 446.371 157.23 447.02C157.66 447.66 157.875 448.465 157.875 449.434V455.07C157.875 455.648 157.914 456.168 157.992 456.629C158.078 457.082 158.199 457.477 158.355 457.812V458H155.461C155.328 457.695 155.223 457.309 155.145 456.84C155.074 456.363 155.039 455.902 155.039 455.457ZM155.449 450.289L155.473 452.035H153.445C152.922 452.035 152.461 452.086 152.062 452.188C151.664 452.281 151.332 452.422 151.066 452.609C150.801 452.797 150.602 453.023 150.469 453.289C150.336 453.555 150.27 453.855 150.27 454.191C150.27 454.527 150.348 454.836 150.504 455.117C150.66 455.391 150.887 455.605 151.184 455.762C151.488 455.918 151.855 455.996 152.285 455.996C152.863 455.996 153.367 455.879 153.797 455.645C154.234 455.402 154.578 455.109 154.828 454.766C155.078 454.414 155.211 454.082 155.227 453.77L156.141 455.023C156.047 455.344 155.887 455.688 155.66 456.055C155.434 456.422 155.137 456.773 154.77 457.109C154.41 457.438 153.977 457.707 153.469 457.918C152.969 458.129 152.391 458.234 151.734 458.234C150.906 458.234 150.168 458.07 149.52 457.742C148.871 457.406 148.363 456.957 147.996 456.395C147.629 455.824 147.445 455.18 147.445 454.461C147.445 453.789 147.57 453.195 147.82 452.68C148.078 452.156 148.453 451.719 148.945 451.367C149.445 451.016 150.055 450.75 150.773 450.57C151.492 450.383 152.312 450.289 153.234 450.289H155.449ZM168.949 445.32H171.516V457.648C171.516 458.789 171.273 459.758 170.789 460.555C170.305 461.352 169.629 461.957 168.762 462.371C167.895 462.793 166.891 463.004 165.75 463.004C165.266 463.004 164.727 462.934 164.133 462.793C163.547 462.652 162.977 462.426 162.422 462.113C161.875 461.809 161.418 461.406 161.051 460.906L162.375 459.242C162.828 459.781 163.328 460.176 163.875 460.426C164.422 460.676 164.996 460.801 165.598 460.801C166.246 460.801 166.797 460.68 167.25 460.438C167.711 460.203 168.066 459.855 168.316 459.395C168.566 458.934 168.691 458.371 168.691 457.707V448.191L168.949 445.32ZM160.336 451.801V451.555C160.336 450.594 160.453 449.719 160.688 448.93C160.922 448.133 161.258 447.449 161.695 446.879C162.133 446.301 162.664 445.859 163.289 445.555C163.914 445.242 164.621 445.086 165.41 445.086C166.23 445.086 166.93 445.234 167.508 445.531C168.094 445.828 168.582 446.254 168.973 446.809C169.363 447.355 169.668 448.012 169.887 448.777C170.113 449.535 170.281 450.379 170.391 451.309V452.094C170.289 453 170.117 453.828 169.875 454.578C169.633 455.328 169.312 455.977 168.914 456.523C168.516 457.07 168.023 457.492 167.438 457.789C166.859 458.086 166.176 458.234 165.387 458.234C164.613 458.234 163.914 458.074 163.289 457.754C162.672 457.434 162.141 456.984 161.695 456.406C161.258 455.828 160.922 455.148 160.688 454.367C160.453 453.578 160.336 452.723 160.336 451.801ZM163.16 451.555V451.801C163.16 452.379 163.215 452.918 163.324 453.418C163.441 453.918 163.617 454.359 163.852 454.742C164.094 455.117 164.398 455.414 164.766 455.633C165.141 455.844 165.582 455.949 166.09 455.949C166.754 455.949 167.297 455.809 167.719 455.527C168.148 455.246 168.477 454.867 168.703 454.391C168.938 453.906 169.102 453.367 169.195 452.773V450.652C169.148 450.191 169.051 449.762 168.902 449.363C168.762 448.965 168.57 448.617 168.328 448.32C168.086 448.016 167.781 447.781 167.414 447.617C167.047 447.445 166.613 447.359 166.113 447.359C165.605 447.359 165.164 447.469 164.789 447.688C164.414 447.906 164.105 448.207 163.863 448.59C163.629 448.973 163.453 449.418 163.336 449.926C163.219 450.434 163.16 450.977 163.16 451.555ZM181.594 455.457V449.41C181.594 448.957 181.512 448.566 181.348 448.238C181.184 447.91 180.934 447.656 180.598 447.477C180.27 447.297 179.855 447.207 179.355 447.207C178.895 447.207 178.496 447.285 178.16 447.441C177.824 447.598 177.562 447.809 177.375 448.074C177.188 448.34 177.094 448.641 177.094 448.977H174.281C174.281 448.477 174.402 447.992 174.645 447.523C174.887 447.055 175.238 446.637 175.699 446.27C176.16 445.902 176.711 445.613 177.352 445.402C177.992 445.191 178.711 445.086 179.508 445.086C180.461 445.086 181.305 445.246 182.039 445.566C182.781 445.887 183.363 446.371 183.785 447.02C184.215 447.66 184.43 448.465 184.43 449.434V455.07C184.43 455.648 184.469 456.168 184.547 456.629C184.633 457.082 184.754 457.477 184.91 457.812V458H182.016C181.883 457.695 181.777 457.309 181.699 456.84C181.629 456.363 181.594 455.902 181.594 455.457ZM182.004 450.289L182.027 452.035H180C179.477 452.035 179.016 452.086 178.617 452.188C178.219 452.281 177.887 452.422 177.621 452.609C177.355 452.797 177.156 453.023 177.023 453.289C176.891 453.555 176.824 453.855 176.824 454.191C176.824 454.527 176.902 454.836 177.059 455.117C177.215 455.391 177.441 455.605 177.738 455.762C178.043 455.918 178.41 455.996 178.84 455.996C179.418 455.996 179.922 455.879 180.352 455.645C180.789 455.402 181.133 455.109 181.383 454.766C181.633 454.414 181.766 454.082 181.781 453.77L182.695 455.023C182.602 455.344 182.441 455.688 182.215 456.055C181.988 456.422 181.691 456.773 181.324 457.109C180.965 457.438 180.531 457.707 180.023 457.918C179.523 458.129 178.945 458.234 178.289 458.234C177.461 458.234 176.723 458.07 176.074 457.742C175.426 457.406 174.918 456.957 174.551 456.395C174.184 455.824 174 455.18 174 454.461C174 453.789 174.125 453.195 174.375 452.68C174.633 452.156 175.008 451.719 175.5 451.367C176 451.016 176.609 450.75 177.328 450.57C178.047 450.383 178.867 450.289 179.789 450.289H182.004ZM190.406 445.32V458H187.57V445.32H190.406ZM187.383 441.992C187.383 441.562 187.523 441.207 187.805 440.926C188.094 440.637 188.492 440.492 189 440.492C189.5 440.492 189.895 440.637 190.184 440.926C190.473 441.207 190.617 441.562 190.617 441.992C190.617 442.414 190.473 442.766 190.184 443.047C189.895 443.328 189.5 443.469 189 443.469C188.492 443.469 188.094 443.328 187.805 443.047C187.523 442.766 187.383 442.414 187.383 441.992ZM196.301 448.027V458H193.477V445.32H196.137L196.301 448.027ZM195.797 451.191L194.883 451.18C194.891 450.281 195.016 449.457 195.258 448.707C195.508 447.957 195.852 447.312 196.289 446.773C196.734 446.234 197.266 445.82 197.883 445.531C198.5 445.234 199.188 445.086 199.945 445.086C200.555 445.086 201.105 445.172 201.598 445.344C202.098 445.508 202.523 445.777 202.875 446.152C203.234 446.527 203.508 447.016 203.695 447.617C203.883 448.211 203.977 448.941 203.977 449.809V458H201.141V449.797C201.141 449.188 201.051 448.707 200.871 448.355C200.699 447.996 200.445 447.742 200.109 447.594C199.781 447.438 199.371 447.359 198.879 447.359C198.395 447.359 197.961 447.461 197.578 447.664C197.195 447.867 196.871 448.145 196.605 448.496C196.348 448.848 196.148 449.254 196.008 449.715C195.867 450.176 195.797 450.668 195.797 451.191Z" fill="white"/>
</g>
<path d="M43.2109 287.931H44.8984C44.8105 288.739 44.5791 289.463 44.2041 290.102C43.8291 290.74 43.2988 291.247 42.6133 291.622C41.9277 291.991 41.0723 292.176 40.0469 292.176C39.2969 292.176 38.6143 292.035 37.999 291.754C37.3896 291.473 36.8652 291.074 36.4258 290.559C35.9863 290.037 35.6465 289.413 35.4062 288.687C35.1719 287.954 35.0547 287.14 35.0547 286.243V284.969C35.0547 284.072 35.1719 283.261 35.4062 282.534C35.6465 281.802 35.9893 281.175 36.4346 280.653C36.8857 280.132 37.4277 279.73 38.0605 279.449C38.6934 279.168 39.4053 279.027 40.1963 279.027C41.1631 279.027 41.9805 279.209 42.6484 279.572C43.3164 279.936 43.835 280.439 44.2041 281.084C44.5791 281.723 44.8105 282.464 44.8984 283.308H43.2109C43.1289 282.71 42.9766 282.197 42.7539 281.77C42.5312 281.336 42.2148 281.002 41.8047 280.768C41.3945 280.533 40.8584 280.416 40.1963 280.416C39.6279 280.416 39.127 280.524 38.6934 280.741C38.2656 280.958 37.9053 281.266 37.6123 281.664C37.3252 282.062 37.1084 282.54 36.9619 283.097C36.8154 283.653 36.7422 284.271 36.7422 284.951V286.243C36.7422 286.87 36.8066 287.459 36.9355 288.01C37.0703 288.561 37.2725 289.044 37.542 289.46C37.8115 289.876 38.1543 290.204 38.5703 290.444C38.9863 290.679 39.4785 290.796 40.0469 290.796C40.7676 290.796 41.3418 290.682 41.7695 290.453C42.1973 290.225 42.5195 289.896 42.7363 289.469C42.959 289.041 43.1172 288.528 43.2109 287.931ZM52.5713 290.374V285.479C52.5713 285.104 52.4951 284.778 52.3428 284.503C52.1963 284.222 51.9736 284.005 51.6748 283.853C51.376 283.7 51.0068 283.624 50.5674 283.624C50.1572 283.624 49.7969 283.694 49.4863 283.835C49.1816 283.976 48.9414 284.16 48.7656 284.389C48.5957 284.617 48.5107 284.863 48.5107 285.127H46.8848C46.8848 284.787 46.9727 284.45 47.1484 284.116C47.3242 283.782 47.5762 283.48 47.9043 283.211C48.2383 282.936 48.6367 282.719 49.0996 282.561C49.5684 282.396 50.0898 282.314 50.6641 282.314C51.3555 282.314 51.9648 282.432 52.4922 282.666C53.0254 282.9 53.4414 283.255 53.7402 283.729C54.0449 284.198 54.1973 284.787 54.1973 285.496V289.926C54.1973 290.242 54.2236 290.579 54.2764 290.937C54.335 291.294 54.4199 291.602 54.5312 291.859V292H52.835C52.7529 291.812 52.6885 291.563 52.6416 291.253C52.5947 290.937 52.5713 290.644 52.5713 290.374ZM52.8525 286.234L52.8701 287.377H51.2266C50.7637 287.377 50.3506 287.415 49.9873 287.491C49.624 287.562 49.3193 287.67 49.0732 287.816C48.8271 287.963 48.6396 288.147 48.5107 288.37C48.3818 288.587 48.3174 288.842 48.3174 289.135C48.3174 289.434 48.3848 289.706 48.5195 289.952C48.6543 290.198 48.8564 290.395 49.126 290.541C49.4014 290.682 49.7383 290.752 50.1367 290.752C50.6348 290.752 51.0742 290.646 51.4551 290.436C51.8359 290.225 52.1377 289.967 52.3604 289.662C52.5889 289.357 52.7119 289.062 52.7295 288.774L53.4238 289.557C53.3828 289.803 53.2715 290.075 53.0898 290.374C52.9082 290.673 52.665 290.96 52.3604 291.235C52.0615 291.505 51.7041 291.73 51.2881 291.912C50.8779 292.088 50.415 292.176 49.8994 292.176C49.2549 292.176 48.6895 292.05 48.2031 291.798C47.7227 291.546 47.3477 291.209 47.0781 290.787C46.8145 290.359 46.6826 289.882 46.6826 289.354C46.6826 288.845 46.7822 288.396 46.9814 288.01C47.1807 287.617 47.4678 287.292 47.8428 287.034C48.2178 286.771 48.6689 286.571 49.1963 286.437C49.7236 286.302 50.3125 286.234 50.9629 286.234H52.8525ZM60.7363 282.49V283.738H55.5947V282.49H60.7363ZM57.335 280.179H58.9609V289.645C58.9609 289.967 59.0107 290.21 59.1104 290.374C59.21 290.538 59.3389 290.646 59.4971 290.699C59.6553 290.752 59.8252 290.778 60.0068 290.778C60.1416 290.778 60.2822 290.767 60.4287 290.743C60.5811 290.714 60.6953 290.69 60.7715 290.673L60.7803 292C60.6514 292.041 60.4814 292.079 60.2705 292.114C60.0654 292.155 59.8164 292.176 59.5234 292.176C59.125 292.176 58.7588 292.097 58.4248 291.938C58.0908 291.78 57.8242 291.517 57.625 291.147C57.4316 290.772 57.335 290.269 57.335 289.636V280.179ZM66.4492 290.84C66.8359 290.84 67.1934 290.761 67.5215 290.603C67.8496 290.444 68.1191 290.228 68.3301 289.952C68.541 289.671 68.6611 289.352 68.6904 288.994H70.2373C70.208 289.557 70.0176 290.081 69.666 290.567C69.3203 291.048 68.8662 291.438 68.3037 291.736C67.7412 292.029 67.123 292.176 66.4492 292.176C65.7344 292.176 65.1104 292.05 64.5771 291.798C64.0498 291.546 63.6104 291.2 63.2588 290.761C62.9131 290.321 62.6523 289.817 62.4766 289.249C62.3066 288.675 62.2217 288.068 62.2217 287.43V287.061C62.2217 286.422 62.3066 285.818 62.4766 285.25C62.6523 284.676 62.9131 284.169 63.2588 283.729C63.6104 283.29 64.0498 282.944 64.5771 282.692C65.1104 282.44 65.7344 282.314 66.4492 282.314C67.1934 282.314 67.8438 282.467 68.4004 282.771C68.957 283.07 69.3936 283.48 69.71 284.002C70.0322 284.518 70.208 285.104 70.2373 285.76H68.6904C68.6611 285.367 68.5498 285.013 68.3564 284.696C68.1689 284.38 67.9111 284.128 67.583 283.94C67.2607 283.747 66.8828 283.65 66.4492 283.65C65.9512 283.65 65.5322 283.75 65.1924 283.949C64.8584 284.143 64.5918 284.406 64.3926 284.74C64.1992 285.068 64.0586 285.435 63.9707 285.839C63.8887 286.237 63.8477 286.645 63.8477 287.061V287.43C63.8477 287.846 63.8887 288.256 63.9707 288.66C64.0527 289.064 64.1904 289.431 64.3838 289.759C64.583 290.087 64.8496 290.351 65.1836 290.55C65.5234 290.743 65.9453 290.84 66.4492 290.84ZM73.6914 278.5V292H72.0654V278.5H73.6914ZM73.3047 286.885L72.6279 286.858C72.6338 286.208 72.7305 285.607 72.918 285.057C73.1055 284.5 73.3691 284.017 73.709 283.606C74.0488 283.196 74.4531 282.88 74.9219 282.657C75.3965 282.429 75.9209 282.314 76.4951 282.314C76.9639 282.314 77.3857 282.379 77.7607 282.508C78.1357 282.631 78.4551 282.83 78.7188 283.105C78.9883 283.381 79.1934 283.738 79.334 284.178C79.4746 284.611 79.5449 285.142 79.5449 285.769V292H77.9102V285.751C77.9102 285.253 77.8369 284.854 77.6904 284.556C77.5439 284.251 77.3301 284.031 77.0488 283.896C76.7676 283.756 76.4219 283.686 76.0117 283.686C75.6074 283.686 75.2383 283.771 74.9043 283.94C74.5762 284.11 74.292 284.345 74.0518 284.644C73.8174 284.942 73.6328 285.285 73.498 285.672C73.3691 286.053 73.3047 286.457 73.3047 286.885ZM81.9092 291.139C81.9092 290.863 81.9941 290.632 82.1641 290.444C82.3398 290.251 82.5918 290.154 82.9199 290.154C83.248 290.154 83.4971 290.251 83.667 290.444C83.8428 290.632 83.9307 290.863 83.9307 291.139C83.9307 291.408 83.8428 291.637 83.667 291.824C83.4971 292.012 83.248 292.105 82.9199 292.105C82.5918 292.105 82.3398 292.012 82.1641 291.824C81.9941 291.637 81.9092 291.408 81.9092 291.139ZM81.918 283.378C81.918 283.103 82.0029 282.871 82.1729 282.684C82.3486 282.49 82.6006 282.394 82.9287 282.394C83.2568 282.394 83.5059 282.49 83.6758 282.684C83.8516 282.871 83.9395 283.103 83.9395 283.378C83.9395 283.647 83.8516 283.876 83.6758 284.063C83.5059 284.251 83.2568 284.345 82.9287 284.345C82.6006 284.345 82.3486 284.251 82.1729 284.063C82.0029 283.876 81.918 283.647 81.918 283.378Z" fill="#3676BC"/>
<path d="M251.445 291.75V294H240.008V292.066L245.562 286.008C246.172 285.32 246.652 284.727 247.004 284.227C247.355 283.727 247.602 283.277 247.742 282.879C247.891 282.473 247.965 282.078 247.965 281.695C247.965 281.156 247.863 280.684 247.66 280.277C247.465 279.863 247.176 279.539 246.793 279.305C246.41 279.062 245.945 278.941 245.398 278.941C244.766 278.941 244.234 279.078 243.805 279.352C243.375 279.625 243.051 280.004 242.832 280.488C242.613 280.965 242.504 281.512 242.504 282.129H239.68C239.68 281.137 239.906 280.23 240.359 279.41C240.812 278.582 241.469 277.926 242.328 277.441C243.188 276.949 244.223 276.703 245.434 276.703C246.574 276.703 247.543 276.895 248.34 277.277C249.137 277.66 249.742 278.203 250.156 278.906C250.578 279.609 250.789 280.441 250.789 281.402C250.789 281.934 250.703 282.461 250.531 282.984C250.359 283.508 250.113 284.031 249.793 284.555C249.48 285.07 249.109 285.59 248.68 286.113C248.25 286.629 247.777 287.152 247.262 287.684L243.57 291.75H251.445ZM264.77 284.039V286.828C264.77 288.164 264.637 289.305 264.371 290.25C264.113 291.188 263.738 291.949 263.246 292.535C262.754 293.121 262.164 293.551 261.477 293.824C260.797 294.098 260.035 294.234 259.191 294.234C258.52 294.234 257.895 294.148 257.316 293.977C256.746 293.805 256.23 293.535 255.77 293.168C255.309 292.801 254.914 292.328 254.586 291.75C254.266 291.164 254.016 290.465 253.836 289.652C253.664 288.84 253.578 287.898 253.578 286.828V284.039C253.578 282.695 253.711 281.562 253.977 280.641C254.242 279.711 254.621 278.957 255.113 278.379C255.605 277.793 256.191 277.367 256.871 277.102C257.559 276.836 258.324 276.703 259.168 276.703C259.848 276.703 260.473 276.789 261.043 276.961C261.621 277.125 262.137 277.387 262.59 277.746C263.051 278.105 263.441 278.574 263.762 279.152C264.09 279.723 264.34 280.414 264.512 281.227C264.684 282.031 264.77 282.969 264.77 284.039ZM261.945 287.227V283.617C261.945 282.938 261.906 282.34 261.828 281.824C261.75 281.301 261.633 280.859 261.477 280.5C261.328 280.133 261.141 279.836 260.914 279.609C260.688 279.375 260.43 279.207 260.141 279.105C259.852 278.996 259.527 278.941 259.168 278.941C258.73 278.941 258.34 279.027 257.996 279.199C257.652 279.363 257.363 279.629 257.129 279.996C256.895 280.363 256.715 280.848 256.59 281.449C256.473 282.043 256.414 282.766 256.414 283.617V287.227C256.414 287.914 256.453 288.52 256.531 289.043C256.609 289.566 256.727 290.016 256.883 290.391C257.039 290.758 257.227 291.062 257.445 291.305C257.672 291.539 257.93 291.711 258.219 291.82C258.516 291.93 258.84 291.984 259.191 291.984C259.637 291.984 260.031 291.898 260.375 291.727C260.719 291.555 261.008 291.281 261.242 290.906C261.477 290.523 261.652 290.027 261.77 289.418C261.887 288.809 261.945 288.078 261.945 287.227Z" fill="#3676BC"/>
<path d="M36.0215 327.203H37.665L41.8574 337.636L46.041 327.203H47.6934L42.4902 340H41.207L36.0215 327.203ZM35.4854 327.203H36.9355L37.1729 335.008V340H35.4854V327.203ZM46.7705 327.203H48.2207V340H46.5332V335.008L46.7705 327.203ZM52.7207 330.49V340H51.0859V330.49H52.7207ZM50.9629 327.968C50.9629 327.704 51.042 327.481 51.2002 327.3C51.3643 327.118 51.6045 327.027 51.9209 327.027C52.2314 327.027 52.4688 327.118 52.6328 327.3C52.8027 327.481 52.8877 327.704 52.8877 327.968C52.8877 328.22 52.8027 328.437 52.6328 328.618C52.4688 328.794 52.2314 328.882 51.9209 328.882C51.6045 328.882 51.3643 328.794 51.2002 328.618C51.042 328.437 50.9629 328.22 50.9629 327.968ZM60.8682 337.478C60.8682 337.243 60.8154 337.026 60.71 336.827C60.6104 336.622 60.4023 336.438 60.0859 336.273C59.7754 336.104 59.3066 335.957 58.6797 335.834C58.1523 335.723 57.6748 335.591 57.2471 335.438C56.8252 335.286 56.4648 335.102 56.166 334.885C55.873 334.668 55.6475 334.413 55.4893 334.12C55.3311 333.827 55.252 333.484 55.252 333.092C55.252 332.717 55.334 332.362 55.498 332.028C55.668 331.694 55.9053 331.398 56.21 331.141C56.5205 330.883 56.8926 330.681 57.3262 330.534C57.7598 330.388 58.2432 330.314 58.7764 330.314C59.5381 330.314 60.1885 330.449 60.7275 330.719C61.2666 330.988 61.6797 331.349 61.9668 331.8C62.2539 332.245 62.3975 332.74 62.3975 333.285H60.7715C60.7715 333.021 60.6924 332.767 60.5342 332.521C60.3818 332.269 60.1562 332.061 59.8574 331.896C59.5645 331.732 59.2041 331.65 58.7764 331.65C58.3252 331.65 57.959 331.721 57.6777 331.861C57.4023 331.996 57.2002 332.169 57.0713 332.38C56.9482 332.591 56.8867 332.813 56.8867 333.048C56.8867 333.224 56.916 333.382 56.9746 333.522C57.0391 333.657 57.1504 333.783 57.3086 333.9C57.4668 334.012 57.6895 334.117 57.9766 334.217C58.2637 334.316 58.6299 334.416 59.0752 334.516C59.8545 334.691 60.4961 334.902 61 335.148C61.5039 335.395 61.8789 335.696 62.125 336.054C62.3711 336.411 62.4941 336.845 62.4941 337.354C62.4941 337.771 62.4062 338.151 62.2305 338.497C62.0605 338.843 61.8115 339.142 61.4834 339.394C61.1611 339.64 60.7744 339.833 60.3232 339.974C59.8779 340.108 59.377 340.176 58.8203 340.176C57.9824 340.176 57.2734 340.026 56.6934 339.728C56.1133 339.429 55.6738 339.042 55.375 338.567C55.0762 338.093 54.9268 337.592 54.9268 337.064H56.5615C56.585 337.51 56.7139 337.864 56.9482 338.128C57.1826 338.386 57.4697 338.57 57.8096 338.682C58.1494 338.787 58.4863 338.84 58.8203 338.84C59.2656 338.84 59.6377 338.781 59.9365 338.664C60.2412 338.547 60.4727 338.386 60.6309 338.181C60.7891 337.976 60.8682 337.741 60.8682 337.478ZM70.167 337.478C70.167 337.243 70.1143 337.026 70.0088 336.827C69.9092 336.622 69.7012 336.438 69.3848 336.273C69.0742 336.104 68.6055 335.957 67.9785 335.834C67.4512 335.723 66.9736 335.591 66.5459 335.438C66.124 335.286 65.7637 335.102 65.4648 334.885C65.1719 334.668 64.9463 334.413 64.7881 334.12C64.6299 333.827 64.5508 333.484 64.5508 333.092C64.5508 332.717 64.6328 332.362 64.7969 332.028C64.9668 331.694 65.2041 331.398 65.5088 331.141C65.8193 330.883 66.1914 330.681 66.625 330.534C67.0586 330.388 67.542 330.314 68.0752 330.314C68.8369 330.314 69.4873 330.449 70.0264 330.719C70.5654 330.988 70.9785 331.349 71.2656 331.8C71.5527 332.245 71.6963 332.74 71.6963 333.285H70.0703C70.0703 333.021 69.9912 332.767 69.833 332.521C69.6807 332.269 69.4551 332.061 69.1562 331.896C68.8633 331.732 68.5029 331.65 68.0752 331.65C67.624 331.65 67.2578 331.721 66.9766 331.861C66.7012 331.996 66.499 332.169 66.3701 332.38C66.2471 332.591 66.1855 332.813 66.1855 333.048C66.1855 333.224 66.2148 333.382 66.2734 333.522C66.3379 333.657 66.4492 333.783 66.6074 333.9C66.7656 334.012 66.9883 334.117 67.2754 334.217C67.5625 334.316 67.9287 334.416 68.374 334.516C69.1533 334.691 69.7949 334.902 70.2988 335.148C70.8027 335.395 71.1777 335.696 71.4238 336.054C71.6699 336.411 71.793 336.845 71.793 337.354C71.793 337.771 71.7051 338.151 71.5293 338.497C71.3594 338.843 71.1104 339.142 70.7822 339.394C70.46 339.64 70.0732 339.833 69.6221 339.974C69.1768 340.108 68.6758 340.176 68.1191 340.176C67.2812 340.176 66.5723 340.026 65.9922 339.728C65.4121 339.429 64.9727 339.042 64.6738 338.567C64.375 338.093 64.2256 337.592 64.2256 337.064H65.8604C65.8838 337.51 66.0127 337.864 66.2471 338.128C66.4814 338.386 66.7686 338.57 67.1084 338.682C67.4482 338.787 67.7852 338.84 68.1191 338.84C68.5645 338.84 68.9365 338.781 69.2354 338.664C69.54 338.547 69.7715 338.386 69.9297 338.181C70.0879 337.976 70.167 337.741 70.167 337.478ZM73.8584 339.139C73.8584 338.863 73.9434 338.632 74.1133 338.444C74.2891 338.251 74.541 338.154 74.8691 338.154C75.1973 338.154 75.4463 338.251 75.6162 338.444C75.792 338.632 75.8799 338.863 75.8799 339.139C75.8799 339.408 75.792 339.637 75.6162 339.824C75.4463 340.012 75.1973 340.105 74.8691 340.105C74.541 340.105 74.2891 340.012 74.1133 339.824C73.9434 339.637 73.8584 339.408 73.8584 339.139ZM73.8672 331.378C73.8672 331.103 73.9521 330.871 74.1221 330.684C74.2979 330.49 74.5498 330.394 74.8779 330.394C75.2061 330.394 75.4551 330.49 75.625 330.684C75.8008 330.871 75.8887 331.103 75.8887 331.378C75.8887 331.647 75.8008 331.876 75.625 332.063C75.4551 332.251 75.2061 332.345 74.8779 332.345C74.5498 332.345 74.2979 332.251 74.1221 332.063C73.9521 331.876 73.8672 331.647 73.8672 331.378Z" fill="#3676BC"/>
<path d="M265.086 339.75V342H253.648V340.066L259.203 334.008C259.812 333.32 260.293 332.727 260.645 332.227C260.996 331.727 261.242 331.277 261.383 330.879C261.531 330.473 261.605 330.078 261.605 329.695C261.605 329.156 261.504 328.684 261.301 328.277C261.105 327.863 260.816 327.539 260.434 327.305C260.051 327.062 259.586 326.941 259.039 326.941C258.406 326.941 257.875 327.078 257.445 327.352C257.016 327.625 256.691 328.004 256.473 328.488C256.254 328.965 256.145 329.512 256.145 330.129H253.32C253.32 329.137 253.547 328.23 254 327.41C254.453 326.582 255.109 325.926 255.969 325.441C256.828 324.949 257.863 324.703 259.074 324.703C260.215 324.703 261.184 324.895 261.98 325.277C262.777 325.66 263.383 326.203 263.797 326.906C264.219 327.609 264.43 328.441 264.43 329.402C264.43 329.934 264.344 330.461 264.172 330.984C264 331.508 263.754 332.031 263.434 332.555C263.121 333.07 262.75 333.59 262.32 334.113C261.891 334.629 261.418 335.152 260.902 335.684L257.211 339.75H265.086Z" fill="#3676BC"/>
<path d="M40.2139 375.203V388H38.5439V375.203H40.2139ZM44.3271 375.203V376.592H34.4395V375.203H44.3271ZM47.7461 378.49V388H46.1113V378.49H47.7461ZM45.9883 375.968C45.9883 375.704 46.0674 375.481 46.2256 375.3C46.3896 375.118 46.6299 375.027 46.9463 375.027C47.2568 375.027 47.4941 375.118 47.6582 375.3C47.8281 375.481 47.9131 375.704 47.9131 375.968C47.9131 376.22 47.8281 376.437 47.6582 376.618C47.4941 376.794 47.2568 376.882 46.9463 376.882C46.6299 376.882 46.3896 376.794 46.2256 376.618C46.0674 376.437 45.9883 376.22 45.9883 375.968ZM51.9736 380.38V388H50.3389V378.49H51.8857L51.9736 380.38ZM51.6396 382.885L50.8838 382.858C50.8896 382.208 50.9746 381.607 51.1387 381.057C51.3027 380.5 51.5459 380.017 51.8682 379.606C52.1904 379.196 52.5918 378.88 53.0723 378.657C53.5527 378.429 54.1094 378.314 54.7422 378.314C55.1875 378.314 55.5977 378.379 55.9727 378.508C56.3477 378.631 56.6729 378.827 56.9482 379.097C57.2236 379.366 57.4375 379.712 57.5898 380.134C57.7422 380.556 57.8184 381.065 57.8184 381.663V388H56.1924V381.742C56.1924 381.244 56.1074 380.846 55.9375 380.547C55.7734 380.248 55.5391 380.031 55.2344 379.896C54.9297 379.756 54.5723 379.686 54.1621 379.686C53.6816 379.686 53.2803 379.771 52.958 379.94C52.6357 380.11 52.3779 380.345 52.1846 380.644C51.9912 380.942 51.8506 381.285 51.7627 381.672C51.6807 382.053 51.6396 382.457 51.6396 382.885ZM57.8008 381.988L56.7109 382.322C56.7168 381.801 56.8018 381.3 56.9658 380.819C57.1357 380.339 57.3789 379.911 57.6953 379.536C58.0176 379.161 58.4131 378.865 58.8818 378.648C59.3506 378.426 59.8867 378.314 60.4902 378.314C61 378.314 61.4512 378.382 61.8438 378.517C62.2422 378.651 62.5762 378.859 62.8457 379.141C63.1211 379.416 63.3291 379.771 63.4697 380.204C63.6104 380.638 63.6807 381.153 63.6807 381.751V388H62.0459V381.733C62.0459 381.2 61.9609 380.787 61.791 380.494C61.627 380.195 61.3926 379.987 61.0879 379.87C60.7891 379.747 60.4316 379.686 60.0156 379.686C59.6582 379.686 59.3418 379.747 59.0664 379.87C58.791 379.993 58.5596 380.163 58.3721 380.38C58.1846 380.591 58.041 380.834 57.9414 381.109C57.8477 381.385 57.8008 381.678 57.8008 381.988ZM70.0879 388.176C69.4258 388.176 68.8252 388.064 68.2861 387.842C67.7529 387.613 67.293 387.294 66.9062 386.884C66.5254 386.474 66.2324 385.987 66.0273 385.425C65.8223 384.862 65.7197 384.247 65.7197 383.579V383.21C65.7197 382.437 65.834 381.748 66.0625 381.145C66.291 380.535 66.6016 380.02 66.9941 379.598C67.3867 379.176 67.832 378.856 68.3301 378.64C68.8281 378.423 69.3438 378.314 69.877 378.314C70.5566 378.314 71.1426 378.432 71.6348 378.666C72.1328 378.9 72.54 379.229 72.8564 379.65C73.1729 380.066 73.4072 380.559 73.5596 381.127C73.7119 381.689 73.7881 382.305 73.7881 382.973V383.702H66.6865V382.375H72.1621V382.252C72.1387 381.83 72.0508 381.42 71.8984 381.021C71.752 380.623 71.5176 380.295 71.1953 380.037C70.873 379.779 70.4336 379.65 69.877 379.65C69.5078 379.65 69.168 379.729 68.8574 379.888C68.5469 380.04 68.2803 380.269 68.0576 380.573C67.835 380.878 67.6621 381.25 67.5391 381.689C67.416 382.129 67.3545 382.636 67.3545 383.21V383.579C67.3545 384.03 67.416 384.455 67.5391 384.854C67.668 385.246 67.8525 385.592 68.0928 385.891C68.3389 386.189 68.6348 386.424 68.9805 386.594C69.332 386.764 69.7305 386.849 70.1758 386.849C70.75 386.849 71.2363 386.731 71.6348 386.497C72.0332 386.263 72.3818 385.949 72.6807 385.557L73.665 386.339C73.46 386.649 73.1992 386.945 72.8828 387.227C72.5664 387.508 72.1768 387.736 71.7139 387.912C71.2568 388.088 70.7148 388.176 70.0879 388.176ZM75.6162 387.139C75.6162 386.863 75.7012 386.632 75.8711 386.444C76.0469 386.251 76.2988 386.154 76.627 386.154C76.9551 386.154 77.2041 386.251 77.374 386.444C77.5498 386.632 77.6377 386.863 77.6377 387.139C77.6377 387.408 77.5498 387.637 77.374 387.824C77.2041 388.012 76.9551 388.105 76.627 388.105C76.2988 388.105 76.0469 388.012 75.8711 387.824C75.7012 387.637 75.6162 387.408 75.6162 387.139ZM75.625 379.378C75.625 379.103 75.71 378.871 75.8799 378.684C76.0557 378.49 76.3076 378.394 76.6357 378.394C76.9639 378.394 77.2129 378.49 77.3828 378.684C77.5586 378.871 77.6465 379.103 77.6465 379.378C77.6465 379.647 77.5586 379.876 77.3828 380.063C77.2129 380.251 76.9639 380.345 76.6357 380.345C76.3076 380.345 76.0557 380.251 75.8799 380.063C75.71 379.876 75.625 379.647 75.625 379.378Z" fill="#3676BC"/>
<path d="M198.57 387.75V390H187.133V388.066L192.688 382.008C193.297 381.32 193.777 380.727 194.129 380.227C194.48 379.727 194.727 379.277 194.867 378.879C195.016 378.473 195.09 378.078 195.09 377.695C195.09 377.156 194.988 376.684 194.785 376.277C194.59 375.863 194.301 375.539 193.918 375.305C193.535 375.062 193.07 374.941 192.523 374.941C191.891 374.941 191.359 375.078 190.93 375.352C190.5 375.625 190.176 376.004 189.957 376.488C189.738 376.965 189.629 377.512 189.629 378.129H186.805C186.805 377.137 187.031 376.23 187.484 375.41C187.938 374.582 188.594 373.926 189.453 373.441C190.312 372.949 191.348 372.703 192.559 372.703C193.699 372.703 194.668 372.895 195.465 373.277C196.262 373.66 196.867 374.203 197.281 374.906C197.703 375.609 197.914 376.441 197.914 377.402C197.914 377.934 197.828 378.461 197.656 378.984C197.484 379.508 197.238 380.031 196.918 380.555C196.605 381.07 196.234 381.59 195.805 382.113C195.375 382.629 194.902 383.152 194.387 383.684L190.695 387.75H198.57ZM203.762 379.898V390H200.938V377.32H203.598L203.762 379.898ZM203.305 383.191L202.344 383.18C202.344 382.305 202.453 381.496 202.672 380.754C202.891 380.012 203.211 379.367 203.633 378.82C204.055 378.266 204.578 377.84 205.203 377.543C205.836 377.238 206.566 377.086 207.395 377.086C207.973 377.086 208.5 377.172 208.977 377.344C209.461 377.508 209.879 377.77 210.23 378.129C210.59 378.488 210.863 378.949 211.051 379.512C211.246 380.074 211.344 380.754 211.344 381.551V390H208.52V381.797C208.52 381.18 208.426 380.695 208.238 380.344C208.059 379.992 207.797 379.742 207.453 379.594C207.117 379.438 206.715 379.359 206.246 379.359C205.715 379.359 205.262 379.461 204.887 379.664C204.52 379.867 204.219 380.145 203.984 380.496C203.75 380.848 203.578 381.254 203.469 381.715C203.359 382.176 203.305 382.668 203.305 383.191ZM211.168 382.441L209.844 382.734C209.844 381.969 209.949 381.246 210.16 380.566C210.379 379.879 210.695 379.277 211.109 378.762C211.531 378.238 212.051 377.828 212.668 377.531C213.285 377.234 213.992 377.086 214.789 377.086C215.438 377.086 216.016 377.176 216.523 377.355C217.039 377.527 217.477 377.801 217.836 378.176C218.195 378.551 218.469 379.039 218.656 379.641C218.844 380.234 218.938 380.953 218.938 381.797V390H216.102V381.785C216.102 381.145 216.008 380.648 215.82 380.297C215.641 379.945 215.383 379.703 215.047 379.57C214.711 379.43 214.309 379.359 213.84 379.359C213.402 379.359 213.016 379.441 212.68 379.605C212.352 379.762 212.074 379.984 211.848 380.273C211.621 380.555 211.449 380.879 211.332 381.246C211.223 381.613 211.168 382.012 211.168 382.441ZM235.367 372.879V390H232.543V376.23L228.359 377.648V375.316L235.027 372.879H235.367ZM252.734 387.75V390H241.297V388.066L246.852 382.008C247.461 381.32 247.941 380.727 248.293 380.227C248.645 379.727 248.891 379.277 249.031 378.879C249.18 378.473 249.254 378.078 249.254 377.695C249.254 377.156 249.152 376.684 248.949 376.277C248.754 375.863 248.465 375.539 248.082 375.305C247.699 375.062 247.234 374.941 246.688 374.941C246.055 374.941 245.523 375.078 245.094 375.352C244.664 375.625 244.34 376.004 244.121 376.488C243.902 376.965 243.793 377.512 243.793 378.129H240.969C240.969 377.137 241.195 376.23 241.648 375.41C242.102 374.582 242.758 373.926 243.617 373.441C244.477 372.949 245.512 372.703 246.723 372.703C247.863 372.703 248.832 372.895 249.629 373.277C250.426 373.66 251.031 374.203 251.445 374.906C251.867 375.609 252.078 376.441 252.078 377.402C252.078 377.934 251.992 378.461 251.82 378.984C251.648 379.508 251.402 380.031 251.082 380.555C250.77 381.07 250.398 381.59 249.969 382.113C249.539 382.629 249.066 383.152 248.551 383.684L244.859 387.75H252.734ZM262.215 386.566C262.215 386.285 262.145 386.031 262.004 385.805C261.863 385.57 261.594 385.359 261.195 385.172C260.805 384.984 260.227 384.812 259.461 384.656C258.789 384.508 258.172 384.332 257.609 384.129C257.055 383.918 256.578 383.664 256.18 383.367C255.781 383.07 255.473 382.719 255.254 382.312C255.035 381.906 254.926 381.438 254.926 380.906C254.926 380.391 255.039 379.902 255.266 379.441C255.492 378.98 255.816 378.574 256.238 378.223C256.66 377.871 257.172 377.594 257.773 377.391C258.383 377.188 259.062 377.086 259.812 377.086C260.875 377.086 261.785 377.266 262.543 377.625C263.309 377.977 263.895 378.457 264.301 379.066C264.707 379.668 264.91 380.348 264.91 381.105H262.086C262.086 380.77 262 380.457 261.828 380.168C261.664 379.871 261.414 379.633 261.078 379.453C260.742 379.266 260.32 379.172 259.812 379.172C259.328 379.172 258.926 379.25 258.605 379.406C258.293 379.555 258.059 379.75 257.902 379.992C257.754 380.234 257.68 380.5 257.68 380.789C257.68 381 257.719 381.191 257.797 381.363C257.883 381.527 258.023 381.68 258.219 381.82C258.414 381.953 258.68 382.078 259.016 382.195C259.359 382.312 259.789 382.426 260.305 382.535C261.273 382.738 262.105 383 262.801 383.32C263.504 383.633 264.043 384.039 264.418 384.539C264.793 385.031 264.98 385.656 264.98 386.414C264.98 386.977 264.859 387.492 264.617 387.961C264.383 388.422 264.039 388.824 263.586 389.168C263.133 389.504 262.59 389.766 261.957 389.953C261.332 390.141 260.629 390.234 259.848 390.234C258.699 390.234 257.727 390.031 256.93 389.625C256.133 389.211 255.527 388.684 255.113 388.043C254.707 387.395 254.504 386.723 254.504 386.027H257.234C257.266 386.551 257.41 386.969 257.668 387.281C257.934 387.586 258.262 387.809 258.652 387.949C259.051 388.082 259.461 388.148 259.883 388.148C260.391 388.148 260.816 388.082 261.16 387.949C261.504 387.809 261.766 387.621 261.945 387.387C262.125 387.145 262.215 386.871 262.215 386.566Z" fill="#3676BC"/>
<path d="M62.2422 173.875L69.7422 189.789L77.2891 173.875H84.3672L73.0234 195.508V208H66.4844V195.508L55.1172 173.875H62.2422ZM84.6719 195.578V195.086C84.6719 193.227 84.9375 191.516 85.4688 189.953C86 188.375 86.7734 187.008 87.7891 185.852C88.8047 184.695 90.0469 183.797 91.5156 183.156C92.9844 182.5 94.6562 182.172 96.5312 182.172C98.4375 182.172 100.125 182.5 101.594 183.156C103.078 183.797 104.328 184.695 105.344 185.852C106.359 187.008 107.133 188.375 107.664 189.953C108.195 191.516 108.461 193.227 108.461 195.086V195.578C108.461 197.422 108.195 199.133 107.664 200.711C107.133 202.273 106.359 203.641 105.344 204.812C104.328 205.969 103.086 206.867 101.617 207.508C100.148 208.148 98.4688 208.469 96.5781 208.469C94.7031 208.469 93.0234 208.148 91.5391 207.508C90.0547 206.867 88.8047 205.969 87.7891 204.812C86.7734 203.641 86 202.273 85.4688 200.711C84.9375 199.133 84.6719 197.422 84.6719 195.578ZM90.8594 195.086V195.578C90.8594 196.688 90.9688 197.727 91.1875 198.695C91.4062 199.664 91.7422 200.516 92.1953 201.25C92.6484 201.984 93.2344 202.562 93.9531 202.984C94.6875 203.391 95.5625 203.594 96.5781 203.594C97.5781 203.594 98.4375 203.391 99.1562 202.984C99.875 202.562 100.461 201.984 100.914 201.25C101.383 200.516 101.727 199.664 101.945 198.695C102.164 197.727 102.273 196.688 102.273 195.578V195.086C102.273 193.992 102.164 192.969 101.945 192.016C101.727 191.047 101.383 190.195 100.914 189.461C100.461 188.711 99.8672 188.125 99.1328 187.703C98.4141 187.266 97.5469 187.047 96.5312 187.047C95.5312 187.047 94.6719 187.266 93.9531 187.703C93.2344 188.125 92.6484 188.711 92.1953 189.461C91.7422 190.195 91.4062 191.047 91.1875 192.016C90.9688 192.969 90.8594 193.992 90.8594 195.086ZM128.055 201.977V182.641H134.289V208H128.43L128.055 201.977ZM128.852 196.727L130.773 196.68C130.773 198.383 130.586 199.953 130.211 201.391C129.836 202.828 129.25 204.078 128.453 205.141C127.672 206.188 126.68 207.008 125.477 207.602C124.273 208.18 122.852 208.469 121.211 208.469C119.961 208.469 118.82 208.297 117.789 207.953C116.758 207.594 115.867 207.039 115.117 206.289C114.383 205.523 113.812 204.547 113.406 203.359C113 202.156 112.797 200.711 112.797 199.023V182.641H118.984V199.07C118.984 199.914 119.078 200.617 119.266 201.18C119.469 201.742 119.742 202.203 120.086 202.562C120.445 202.906 120.859 203.156 121.328 203.312C121.812 203.453 122.328 203.523 122.875 203.523C124.375 203.523 125.555 203.227 126.414 202.633C127.289 202.023 127.914 201.211 128.289 200.195C128.664 199.164 128.852 198.008 128.852 196.727ZM160.586 201.461L167.383 173.875H171.062L171.297 179.688L164.031 208H160.141L160.586 201.461ZM156.297 173.875L161.875 201.367V208H157.633L149.898 173.875H156.297ZM178.352 201.25L183.836 173.875H190.258L182.523 208H178.281L178.352 201.25ZM172.82 173.875L179.617 201.555L180.016 208H176.125L168.883 179.664L169.164 173.875H172.82ZM200.43 182.641V208H194.219V182.641H200.43ZM193.797 176.008C193.797 175.086 194.109 174.32 194.734 173.711C195.375 173.102 196.234 172.797 197.312 172.797C198.391 172.797 199.242 173.102 199.867 173.711C200.508 174.32 200.828 175.086 200.828 176.008C200.828 176.914 200.508 177.672 199.867 178.281C199.242 178.891 198.391 179.195 197.312 179.195C196.234 179.195 195.375 178.891 194.734 178.281C194.109 177.672 193.797 176.914 193.797 176.008ZM212.406 188.055V208H206.219V182.641H212.031L212.406 188.055ZM211.422 194.406H209.594C209.609 192.562 209.859 190.891 210.344 189.391C210.828 187.891 211.508 186.602 212.383 185.523C213.273 184.445 214.328 183.617 215.547 183.039C216.766 182.461 218.125 182.172 219.625 182.172C220.844 182.172 221.945 182.344 222.93 182.688C223.914 183.031 224.758 183.578 225.461 184.328C226.18 185.078 226.727 186.062 227.102 187.281C227.492 188.484 227.688 189.969 227.688 191.734V208H221.453V191.688C221.453 190.531 221.281 189.617 220.938 188.945C220.609 188.273 220.125 187.797 219.484 187.516C218.859 187.234 218.086 187.094 217.164 187.094C216.211 187.094 215.375 187.289 214.656 187.68C213.953 188.055 213.359 188.578 212.875 189.25C212.406 189.922 212.047 190.695 211.797 191.57C211.547 192.445 211.422 193.391 211.422 194.406ZM240.203 173.875L239.523 197.758H234.297L233.617 173.875H240.203ZM233.43 205.117C233.43 204.195 233.742 203.422 234.367 202.797C235.008 202.156 235.867 201.836 236.945 201.836C238.023 201.836 238.875 202.156 239.5 202.797C240.141 203.422 240.461 204.195 240.461 205.117C240.461 206.023 240.141 206.789 239.5 207.414C238.875 208.039 238.023 208.352 236.945 208.352C235.867 208.352 235.008 208.039 234.367 207.414C233.742 206.789 233.43 206.023 233.43 205.117Z" fill="#3676BC"/>
<path d="M94.2109 239.931H95.8984C95.8105 240.739 95.5791 241.463 95.2041 242.102C94.8291 242.74 94.2988 243.247 93.6133 243.622C92.9277 243.991 92.0723 244.176 91.0469 244.176C90.2969 244.176 89.6143 244.035 88.999 243.754C88.3896 243.473 87.8652 243.074 87.4258 242.559C86.9863 242.037 86.6465 241.413 86.4062 240.687C86.1719 239.954 86.0547 239.14 86.0547 238.243V236.969C86.0547 236.072 86.1719 235.261 86.4062 234.534C86.6465 233.802 86.9893 233.175 87.4346 232.653C87.8857 232.132 88.4277 231.73 89.0605 231.449C89.6934 231.168 90.4053 231.027 91.1963 231.027C92.1631 231.027 92.9805 231.209 93.6484 231.572C94.3164 231.936 94.835 232.439 95.2041 233.084C95.5791 233.723 95.8105 234.464 95.8984 235.308H94.2109C94.1289 234.71 93.9766 234.197 93.7539 233.77C93.5312 233.336 93.2148 233.002 92.8047 232.768C92.3945 232.533 91.8584 232.416 91.1963 232.416C90.6279 232.416 90.127 232.524 89.6934 232.741C89.2656 232.958 88.9053 233.266 88.6123 233.664C88.3252 234.062 88.1084 234.54 87.9619 235.097C87.8154 235.653 87.7422 236.271 87.7422 236.951V238.243C87.7422 238.87 87.8066 239.459 87.9355 240.01C88.0703 240.561 88.2725 241.044 88.542 241.46C88.8115 241.876 89.1543 242.204 89.5703 242.444C89.9863 242.679 90.4785 242.796 91.0469 242.796C91.7676 242.796 92.3418 242.682 92.7695 242.453C93.1973 242.225 93.5195 241.896 93.7363 241.469C93.959 241.041 94.1172 240.528 94.2109 239.931ZM97.5332 239.351V239.148C97.5332 238.463 97.6328 237.827 97.832 237.241C98.0312 236.649 98.3184 236.137 98.6934 235.703C99.0684 235.264 99.5225 234.924 100.056 234.684C100.589 234.438 101.187 234.314 101.849 234.314C102.517 234.314 103.117 234.438 103.65 234.684C104.189 234.924 104.646 235.264 105.021 235.703C105.402 236.137 105.692 236.649 105.892 237.241C106.091 237.827 106.19 238.463 106.19 239.148V239.351C106.19 240.036 106.091 240.672 105.892 241.258C105.692 241.844 105.402 242.356 105.021 242.796C104.646 243.229 104.192 243.569 103.659 243.815C103.132 244.056 102.534 244.176 101.866 244.176C101.198 244.176 100.598 244.056 100.064 243.815C99.5312 243.569 99.0742 243.229 98.6934 242.796C98.3184 242.356 98.0312 241.844 97.832 241.258C97.6328 240.672 97.5332 240.036 97.5332 239.351ZM99.1592 239.148V239.351C99.1592 239.825 99.2148 240.273 99.3262 240.695C99.4375 241.111 99.6045 241.48 99.8271 241.803C100.056 242.125 100.34 242.38 100.68 242.567C101.02 242.749 101.415 242.84 101.866 242.84C102.312 242.84 102.701 242.749 103.035 242.567C103.375 242.38 103.656 242.125 103.879 241.803C104.102 241.48 104.269 241.111 104.38 240.695C104.497 240.273 104.556 239.825 104.556 239.351V239.148C104.556 238.68 104.497 238.237 104.38 237.821C104.269 237.399 104.099 237.027 103.87 236.705C103.647 236.377 103.366 236.119 103.026 235.932C102.692 235.744 102.3 235.65 101.849 235.65C101.403 235.65 101.011 235.744 100.671 235.932C100.337 236.119 100.056 236.377 99.8271 236.705C99.6045 237.027 99.4375 237.399 99.3262 237.821C99.2148 238.237 99.1592 238.68 99.1592 239.148ZM109.855 236.521V244H108.229V234.49H109.768L109.855 236.521ZM109.469 238.885L108.792 238.858C108.798 238.208 108.895 237.607 109.082 237.057C109.27 236.5 109.533 236.017 109.873 235.606C110.213 235.196 110.617 234.88 111.086 234.657C111.561 234.429 112.085 234.314 112.659 234.314C113.128 234.314 113.55 234.379 113.925 234.508C114.3 234.631 114.619 234.83 114.883 235.105C115.152 235.381 115.357 235.738 115.498 236.178C115.639 236.611 115.709 237.142 115.709 237.769V244H114.074V237.751C114.074 237.253 114.001 236.854 113.854 236.556C113.708 236.251 113.494 236.031 113.213 235.896C112.932 235.756 112.586 235.686 112.176 235.686C111.771 235.686 111.402 235.771 111.068 235.94C110.74 236.11 110.456 236.345 110.216 236.644C109.981 236.942 109.797 237.285 109.662 237.672C109.533 238.053 109.469 238.457 109.469 238.885ZM124.34 234.49H125.816V243.798C125.816 244.636 125.646 245.351 125.307 245.942C124.967 246.534 124.492 246.982 123.883 247.287C123.279 247.598 122.582 247.753 121.791 247.753C121.463 247.753 121.076 247.7 120.631 247.595C120.191 247.495 119.758 247.322 119.33 247.076C118.908 246.836 118.554 246.511 118.267 246.101L119.119 245.134C119.518 245.614 119.934 245.948 120.367 246.136C120.807 246.323 121.24 246.417 121.668 246.417C122.184 246.417 122.629 246.32 123.004 246.127C123.379 245.934 123.669 245.646 123.874 245.266C124.085 244.891 124.19 244.428 124.19 243.877V236.582L124.34 234.49ZM117.792 239.351V239.166C117.792 238.439 117.877 237.78 118.047 237.188C118.223 236.591 118.472 236.078 118.794 235.65C119.122 235.223 119.518 234.895 119.98 234.666C120.443 234.432 120.965 234.314 121.545 234.314C122.143 234.314 122.664 234.42 123.109 234.631C123.561 234.836 123.941 235.138 124.252 235.536C124.568 235.929 124.817 236.403 124.999 236.96C125.181 237.517 125.307 238.146 125.377 238.85V239.658C125.312 240.355 125.187 240.982 124.999 241.539C124.817 242.096 124.568 242.57 124.252 242.963C123.941 243.355 123.561 243.657 123.109 243.868C122.658 244.073 122.131 244.176 121.527 244.176C120.959 244.176 120.443 244.056 119.98 243.815C119.523 243.575 119.131 243.238 118.803 242.805C118.475 242.371 118.223 241.861 118.047 241.275C117.877 240.684 117.792 240.042 117.792 239.351ZM119.418 239.166V239.351C119.418 239.825 119.465 240.271 119.559 240.687C119.658 241.103 119.808 241.469 120.007 241.785C120.212 242.102 120.473 242.351 120.789 242.532C121.105 242.708 121.483 242.796 121.923 242.796C122.462 242.796 122.907 242.682 123.259 242.453C123.61 242.225 123.889 241.923 124.094 241.548C124.305 241.173 124.469 240.766 124.586 240.326V238.208C124.521 237.886 124.422 237.575 124.287 237.276C124.158 236.972 123.988 236.702 123.777 236.468C123.572 236.228 123.317 236.037 123.013 235.896C122.708 235.756 122.351 235.686 121.94 235.686C121.495 235.686 121.111 235.779 120.789 235.967C120.473 236.148 120.212 236.4 120.007 236.723C119.808 237.039 119.658 237.408 119.559 237.83C119.465 238.246 119.418 238.691 119.418 239.166ZM129.912 235.984V244H128.286V234.49H129.868L129.912 235.984ZM132.883 234.438L132.874 235.949C132.739 235.92 132.61 235.902 132.487 235.896C132.37 235.885 132.235 235.879 132.083 235.879C131.708 235.879 131.377 235.938 131.09 236.055C130.803 236.172 130.56 236.336 130.36 236.547C130.161 236.758 130.003 237.01 129.886 237.303C129.774 237.59 129.701 237.906 129.666 238.252L129.209 238.516C129.209 237.941 129.265 237.402 129.376 236.898C129.493 236.395 129.672 235.949 129.912 235.562C130.152 235.17 130.457 234.865 130.826 234.648C131.201 234.426 131.646 234.314 132.162 234.314C132.279 234.314 132.414 234.329 132.566 234.358C132.719 234.382 132.824 234.408 132.883 234.438ZM139.642 242.374V237.479C139.642 237.104 139.565 236.778 139.413 236.503C139.267 236.222 139.044 236.005 138.745 235.853C138.446 235.7 138.077 235.624 137.638 235.624C137.228 235.624 136.867 235.694 136.557 235.835C136.252 235.976 136.012 236.16 135.836 236.389C135.666 236.617 135.581 236.863 135.581 237.127H133.955C133.955 236.787 134.043 236.45 134.219 236.116C134.395 235.782 134.646 235.48 134.975 235.211C135.309 234.936 135.707 234.719 136.17 234.561C136.639 234.396 137.16 234.314 137.734 234.314C138.426 234.314 139.035 234.432 139.562 234.666C140.096 234.9 140.512 235.255 140.811 235.729C141.115 236.198 141.268 236.787 141.268 237.496V241.926C141.268 242.242 141.294 242.579 141.347 242.937C141.405 243.294 141.49 243.602 141.602 243.859V244H139.905C139.823 243.812 139.759 243.563 139.712 243.253C139.665 242.937 139.642 242.644 139.642 242.374ZM139.923 238.234L139.94 239.377H138.297C137.834 239.377 137.421 239.415 137.058 239.491C136.694 239.562 136.39 239.67 136.144 239.816C135.897 239.963 135.71 240.147 135.581 240.37C135.452 240.587 135.388 240.842 135.388 241.135C135.388 241.434 135.455 241.706 135.59 241.952C135.725 242.198 135.927 242.395 136.196 242.541C136.472 242.682 136.809 242.752 137.207 242.752C137.705 242.752 138.145 242.646 138.525 242.436C138.906 242.225 139.208 241.967 139.431 241.662C139.659 241.357 139.782 241.062 139.8 240.774L140.494 241.557C140.453 241.803 140.342 242.075 140.16 242.374C139.979 242.673 139.735 242.96 139.431 243.235C139.132 243.505 138.774 243.73 138.358 243.912C137.948 244.088 137.485 244.176 136.97 244.176C136.325 244.176 135.76 244.05 135.273 243.798C134.793 243.546 134.418 243.209 134.148 242.787C133.885 242.359 133.753 241.882 133.753 241.354C133.753 240.845 133.853 240.396 134.052 240.01C134.251 239.617 134.538 239.292 134.913 239.034C135.288 238.771 135.739 238.571 136.267 238.437C136.794 238.302 137.383 238.234 138.033 238.234H139.923ZM147.807 234.49V235.738H142.665V234.49H147.807ZM144.405 232.179H146.031V241.645C146.031 241.967 146.081 242.21 146.181 242.374C146.28 242.538 146.409 242.646 146.567 242.699C146.726 242.752 146.896 242.778 147.077 242.778C147.212 242.778 147.353 242.767 147.499 242.743C147.651 242.714 147.766 242.69 147.842 242.673L147.851 244C147.722 244.041 147.552 244.079 147.341 244.114C147.136 244.155 146.887 244.176 146.594 244.176C146.195 244.176 145.829 244.097 145.495 243.938C145.161 243.78 144.895 243.517 144.695 243.147C144.502 242.772 144.405 242.269 144.405 241.636V232.179ZM155.532 241.803V234.49H157.167V244H155.611L155.532 241.803ZM155.84 239.799L156.517 239.781C156.517 240.414 156.449 241 156.314 241.539C156.186 242.072 155.975 242.535 155.682 242.928C155.389 243.32 155.005 243.628 154.53 243.851C154.056 244.067 153.479 244.176 152.799 244.176C152.336 244.176 151.911 244.108 151.524 243.974C151.144 243.839 150.815 243.631 150.54 243.35C150.265 243.068 150.051 242.702 149.898 242.251C149.752 241.8 149.679 241.258 149.679 240.625V234.49H151.305V240.643C151.305 241.07 151.352 241.425 151.445 241.706C151.545 241.981 151.677 242.201 151.841 242.365C152.011 242.523 152.198 242.635 152.403 242.699C152.614 242.764 152.831 242.796 153.054 242.796C153.745 242.796 154.293 242.664 154.697 242.4C155.102 242.131 155.392 241.771 155.567 241.319C155.749 240.862 155.84 240.355 155.84 239.799ZM161.412 230.5V244H159.777V230.5H161.412ZM169.63 242.374V237.479C169.63 237.104 169.554 236.778 169.401 236.503C169.255 236.222 169.032 236.005 168.733 235.853C168.435 235.7 168.065 235.624 167.626 235.624C167.216 235.624 166.855 235.694 166.545 235.835C166.24 235.976 166 236.16 165.824 236.389C165.654 236.617 165.569 236.863 165.569 237.127H163.943C163.943 236.787 164.031 236.45 164.207 236.116C164.383 235.782 164.635 235.48 164.963 235.211C165.297 234.936 165.695 234.719 166.158 234.561C166.627 234.396 167.148 234.314 167.723 234.314C168.414 234.314 169.023 234.432 169.551 234.666C170.084 234.9 170.5 235.255 170.799 235.729C171.104 236.198 171.256 236.787 171.256 237.496V241.926C171.256 242.242 171.282 242.579 171.335 242.937C171.394 243.294 171.479 243.602 171.59 243.859V244H169.894C169.812 243.812 169.747 243.563 169.7 243.253C169.653 242.937 169.63 242.644 169.63 242.374ZM169.911 238.234L169.929 239.377H168.285C167.822 239.377 167.409 239.415 167.046 239.491C166.683 239.562 166.378 239.67 166.132 239.816C165.886 239.963 165.698 240.147 165.569 240.37C165.44 240.587 165.376 240.842 165.376 241.135C165.376 241.434 165.443 241.706 165.578 241.952C165.713 242.198 165.915 242.395 166.185 242.541C166.46 242.682 166.797 242.752 167.195 242.752C167.693 242.752 168.133 242.646 168.514 242.436C168.895 242.225 169.196 241.967 169.419 241.662C169.647 241.357 169.771 241.062 169.788 240.774L170.482 241.557C170.441 241.803 170.33 242.075 170.148 242.374C169.967 242.673 169.724 242.96 169.419 243.235C169.12 243.505 168.763 243.73 168.347 243.912C167.937 244.088 167.474 244.176 166.958 244.176C166.313 244.176 165.748 244.05 165.262 243.798C164.781 243.546 164.406 243.209 164.137 242.787C163.873 242.359 163.741 241.882 163.741 241.354C163.741 240.845 163.841 240.396 164.04 240.01C164.239 239.617 164.526 239.292 164.901 239.034C165.276 238.771 165.728 238.571 166.255 238.437C166.782 238.302 167.371 238.234 168.021 238.234H169.911ZM177.795 234.49V235.738H172.653V234.49H177.795ZM174.394 232.179H176.02V241.645C176.02 241.967 176.069 242.21 176.169 242.374C176.269 242.538 176.397 242.646 176.556 242.699C176.714 242.752 176.884 242.778 177.065 242.778C177.2 242.778 177.341 242.767 177.487 242.743C177.64 242.714 177.754 242.69 177.83 242.673L177.839 244C177.71 244.041 177.54 244.079 177.329 244.114C177.124 244.155 176.875 244.176 176.582 244.176C176.184 244.176 175.817 244.097 175.483 243.938C175.149 243.78 174.883 243.517 174.684 243.147C174.49 242.772 174.394 242.269 174.394 241.636V232.179ZM181.469 234.49V244H179.834V234.49H181.469ZM179.711 231.968C179.711 231.704 179.79 231.481 179.948 231.3C180.112 231.118 180.353 231.027 180.669 231.027C180.979 231.027 181.217 231.118 181.381 231.3C181.551 231.481 181.636 231.704 181.636 231.968C181.636 232.22 181.551 232.437 181.381 232.618C181.217 232.794 180.979 232.882 180.669 232.882C180.353 232.882 180.112 232.794 179.948 232.618C179.79 232.437 179.711 232.22 179.711 231.968ZM183.648 239.351V239.148C183.648 238.463 183.748 237.827 183.947 237.241C184.146 236.649 184.434 236.137 184.809 235.703C185.184 235.264 185.638 234.924 186.171 234.684C186.704 234.438 187.302 234.314 187.964 234.314C188.632 234.314 189.232 234.438 189.766 234.684C190.305 234.924 190.762 235.264 191.137 235.703C191.518 236.137 191.808 236.649 192.007 237.241C192.206 237.827 192.306 238.463 192.306 239.148V239.351C192.306 240.036 192.206 240.672 192.007 241.258C191.808 241.844 191.518 242.356 191.137 242.796C190.762 243.229 190.308 243.569 189.774 243.815C189.247 244.056 188.649 244.176 187.981 244.176C187.313 244.176 186.713 244.056 186.18 243.815C185.646 243.569 185.189 243.229 184.809 242.796C184.434 242.356 184.146 241.844 183.947 241.258C183.748 240.672 183.648 240.036 183.648 239.351ZM185.274 239.148V239.351C185.274 239.825 185.33 240.273 185.441 240.695C185.553 241.111 185.72 241.48 185.942 241.803C186.171 242.125 186.455 242.38 186.795 242.567C187.135 242.749 187.53 242.84 187.981 242.84C188.427 242.84 188.816 242.749 189.15 242.567C189.49 242.38 189.771 242.125 189.994 241.803C190.217 241.48 190.384 241.111 190.495 240.695C190.612 240.273 190.671 239.825 190.671 239.351V239.148C190.671 238.68 190.612 238.237 190.495 237.821C190.384 237.399 190.214 237.027 189.985 236.705C189.763 236.377 189.481 236.119 189.142 235.932C188.808 235.744 188.415 235.65 187.964 235.65C187.519 235.65 187.126 235.744 186.786 235.932C186.452 236.119 186.171 236.377 185.942 236.705C185.72 237.027 185.553 237.399 185.441 237.821C185.33 238.237 185.274 238.68 185.274 239.148ZM195.971 236.521V244H194.345V234.49H195.883L195.971 236.521ZM195.584 238.885L194.907 238.858C194.913 238.208 195.01 237.607 195.197 237.057C195.385 236.5 195.648 236.017 195.988 235.606C196.328 235.196 196.732 234.88 197.201 234.657C197.676 234.429 198.2 234.314 198.774 234.314C199.243 234.314 199.665 234.379 200.04 234.508C200.415 234.631 200.734 234.83 200.998 235.105C201.268 235.381 201.473 235.738 201.613 236.178C201.754 236.611 201.824 237.142 201.824 237.769V244H200.189V237.751C200.189 237.253 200.116 236.854 199.97 236.556C199.823 236.251 199.609 236.031 199.328 235.896C199.047 235.756 198.701 235.686 198.291 235.686C197.887 235.686 197.518 235.771 197.184 235.94C196.855 236.11 196.571 236.345 196.331 236.644C196.097 236.942 195.912 237.285 195.777 237.672C195.648 238.053 195.584 238.457 195.584 238.885ZM209.831 241.478C209.831 241.243 209.778 241.026 209.673 240.827C209.573 240.622 209.365 240.438 209.049 240.273C208.738 240.104 208.27 239.957 207.643 239.834C207.115 239.723 206.638 239.591 206.21 239.438C205.788 239.286 205.428 239.102 205.129 238.885C204.836 238.668 204.61 238.413 204.452 238.12C204.294 237.827 204.215 237.484 204.215 237.092C204.215 236.717 204.297 236.362 204.461 236.028C204.631 235.694 204.868 235.398 205.173 235.141C205.483 234.883 205.855 234.681 206.289 234.534C206.723 234.388 207.206 234.314 207.739 234.314C208.501 234.314 209.151 234.449 209.69 234.719C210.229 234.988 210.643 235.349 210.93 235.8C211.217 236.245 211.36 236.74 211.36 237.285H209.734C209.734 237.021 209.655 236.767 209.497 236.521C209.345 236.269 209.119 236.061 208.82 235.896C208.527 235.732 208.167 235.65 207.739 235.65C207.288 235.65 206.922 235.721 206.641 235.861C206.365 235.996 206.163 236.169 206.034 236.38C205.911 236.591 205.85 236.813 205.85 237.048C205.85 237.224 205.879 237.382 205.938 237.522C206.002 237.657 206.113 237.783 206.271 237.9C206.43 238.012 206.652 238.117 206.939 238.217C207.227 238.316 207.593 238.416 208.038 238.516C208.817 238.691 209.459 238.902 209.963 239.148C210.467 239.395 210.842 239.696 211.088 240.054C211.334 240.411 211.457 240.845 211.457 241.354C211.457 241.771 211.369 242.151 211.193 242.497C211.023 242.843 210.774 243.142 210.446 243.394C210.124 243.64 209.737 243.833 209.286 243.974C208.841 244.108 208.34 244.176 207.783 244.176C206.945 244.176 206.236 244.026 205.656 243.728C205.076 243.429 204.637 243.042 204.338 242.567C204.039 242.093 203.89 241.592 203.89 241.064H205.524C205.548 241.51 205.677 241.864 205.911 242.128C206.146 242.386 206.433 242.57 206.772 242.682C207.112 242.787 207.449 242.84 207.783 242.84C208.229 242.84 208.601 242.781 208.899 242.664C209.204 242.547 209.436 242.386 209.594 242.181C209.752 241.976 209.831 241.741 209.831 241.478Z" fill="#3676BC"/>
<circle cx="150" cy="72" r="67" fill="#3472BA" stroke="white" stroke-width="10"/>
<path d="M193.098 51.1875C192.004 51.5412 190.839 51.7386 189.626 51.7386C183.419 51.7386 178.388 46.7191 178.388 40.5277C178.388 39.0808 178.672 37.7016 179.173 36.432L149.999 25L120.827 36.432C121.328 37.7026 121.612 39.0808 121.612 40.5277C121.612 46.7191 116.581 51.7386 110.374 51.7386C109.162 51.7386 107.996 51.5422 106.902 51.1875C102.672 68.9763 101.285 104.309 150 120C198.715 104.309 197.328 68.9763 193.098 51.1875Z" fill="url(#paint0_linear_22_4971)"/>
<path d="M125.516 57.1925V38.8765L120.826 36.4321C121.327 37.7026 121.611 39.0808 121.611 40.5277C121.611 46.7191 116.58 51.7386 110.373 51.7386C109.161 51.7386 107.995 51.5422 106.901 51.1875L110.03 55.7206L125.516 57.1925Z" fill="url(#paint1_linear_22_4971)"/>
<path d="M174.483 38.8765V61.0122H183.216L189.968 55.7206L193.097 51.1875C192.003 51.5412 190.838 51.7386 189.625 51.7386C183.419 51.7386 178.387 46.7191 178.387 40.5277C178.387 39.0808 178.671 37.7016 179.172 36.4321L174.483 38.8765Z" fill="url(#paint2_linear_22_4971)"/>
<path d="M150 115.803V120C198.715 104.309 197.327 68.9763 193.098 51.1875L189.969 55.7206L150 115.803Z" fill="url(#paint3_linear_22_4971)"/>
<path d="M149.999 115.803C109.09 102.087 106.753 73.7058 110.031 55.7206C110.145 55.7236 110.259 55.7246 110.373 55.7246C118.773 55.7246 125.607 48.9075 125.607 40.5277C125.607 39.9737 125.577 39.4236 125.516 38.8765L149.999 29.283L174.482 38.8765C174.421 39.4236 174.392 39.9747 174.392 40.5277C174.392 48.9075 181.226 55.7246 189.626 55.7246C189.74 55.7246 189.855 55.7236 189.968 55.7206C193.245 73.7058 190.909 102.087 149.999 115.803Z" fill="url(#paint4_linear_22_4971)"/>
<path opacity="0.9" d="M189.968 55.7206C189.968 55.7206 190.024 56.0276 190.128 56.6036C190.24 57.1776 190.372 58.0266 190.536 59.1078C190.685 60.191 190.843 61.5084 190.966 63.0281C191.065 64.5468 191.174 66.2668 191.113 68.1442C191.068 70.0197 190.953 72.0546 190.643 74.1861C190.337 76.3147 189.918 78.5529 189.25 80.809C188.591 83.0651 187.739 85.3471 186.687 87.5833C185.621 89.8135 184.328 91.9749 182.89 94.0338C181.44 96.0896 179.757 97.963 178.039 99.7368C177.141 100.586 176.283 101.463 175.346 102.231C174.885 102.624 174.436 103.024 173.973 103.402C173.501 103.767 173.032 104.129 172.566 104.49C170.702 105.924 168.794 107.165 166.955 108.286C165.1 109.381 163.313 110.359 161.62 111.175C159.947 112.033 158.345 112.675 156.945 113.279C155.52 113.823 154.29 114.332 153.255 114.69C151.183 115.4 150 115.806 150 115.806C150 115.806 151.173 115.371 153.226 114.611C154.251 114.228 155.467 113.69 156.875 113.113C157.577 112.817 158.303 112.455 159.079 112.1C159.855 111.744 160.674 111.375 161.5 110.934C163.18 110.106 164.952 109.117 166.789 108.012C168.61 106.88 170.497 105.63 172.337 104.19C172.795 103.83 173.259 103.465 173.725 103.099C174.173 102.709 174.623 102.319 175.078 101.925C176.002 101.156 176.845 100.278 177.728 99.4289C179.417 97.6581 181.066 95.7866 182.485 93.7448C183.925 91.7208 185.222 89.5933 186.296 87.394C187.355 85.1887 188.22 82.9345 188.892 80.7033C189.572 78.4721 190.008 76.2529 190.328 74.1413C190.654 72.0267 190.786 70.0037 190.847 68.1383C190.912 66.2718 190.849 64.5578 190.789 63.0411C190.703 61.5244 190.578 60.204 190.456 59.1198C190.318 58.0375 190.208 57.1865 190.109 56.6085C190.017 56.0296 189.968 55.7206 189.968 55.7206Z" fill="white"/>
<path d="M150 25V29.283L174.483 38.8765L179.173 36.432L150 25Z" fill="url(#paint5_linear_22_4971)"/>
<path d="M127.73 90.9714L122.73 59.907L140.419 68.2578L150 51.7037L159.582 68.2578L177.27 59.908L172.294 91.0143L127.73 90.9714Z" fill="#893B0C"/>
<path d="M176.598 60.8009L159.37 68.9335L150 52.744L140.63 68.9335L123.403 60.8009L128.176 90.4513L171.849 90.4941L176.598 60.8009Z" fill="url(#paint6_linear_22_4971)"/>
<path d="M131.303 86.7871L128.134 67.0939L142.116 73.6938L149.996 60.0784L157.875 73.6938L171.866 67.0879L168.71 86.8249L131.303 86.7871Z" fill="url(#paint7_linear_22_4971)"/>
<path d="M171.849 90.4941L168.71 86.8249L131.303 86.7871L128.176 90.4513L171.849 90.4941Z" fill="url(#paint8_linear_22_4971)"/>
<path d="M140.63 68.9335L142.116 73.6938L149.996 60.0784L150 52.744L140.63 68.9335Z" fill="#E8F983"/>
<path d="M150 52.744L149.996 60.0784L157.875 73.6938L159.37 68.9335L150 52.744Z" fill="url(#paint9_linear_22_4971)"/>
<path d="M176.598 60.8009L171.866 67.0879L168.71 86.8249L171.849 90.4941L176.598 60.8009Z" fill="url(#paint10_linear_22_4971)"/>
<g opacity="0.9">
<path d="M171.866 67.0879C171.866 67.0879 171.747 68.3336 171.512 70.1941C171.385 71.1228 171.257 72.208 171.081 73.367C170.907 74.5249 170.72 75.7596 170.535 76.9963C170.326 78.227 170.118 79.4597 169.922 80.6146C169.729 81.7696 169.51 82.8409 169.342 83.7636C168.986 85.6042 168.709 86.8249 168.709 86.8249C168.709 86.8249 168.827 85.5783 169.064 83.7188C169.192 82.79 169.317 81.7048 169.495 80.5459C169.669 79.3879 169.855 78.1532 170.041 76.9166C170.25 75.6849 170.458 74.4532 170.653 73.2982C170.847 72.1432 171.066 71.072 171.234 70.1492C171.591 68.3097 171.866 67.0879 171.866 67.0879Z" fill="white"/>
</g>
<path d="M123.403 60.8009L128.134 67.0939L142.117 73.6938L140.63 68.9335L123.403 60.8009Z" fill="url(#paint11_linear_22_4971)"/>
<path d="M173.432 77.6729C172.374 83.375 170.105 87.7447 168.368 87.4268C166.628 87.105 166.08 82.2151 167.146 76.506C168.209 70.797 170.475 66.4372 172.212 66.7611C173.949 67.079 174.494 71.9679 173.432 77.6729Z" fill="url(#paint12_radial_22_4971)"/>
<path opacity="0.4" d="M105.15 62.5827C105.44 58.3435 106.122 54.467 106.903 51.1875C107.996 51.5412 109.161 51.7386 110.374 51.7386C112.425 51.7386 114.342 51.1815 115.996 50.2238L174.082 108.167C169.94 111.218 165.031 114.04 159.241 116.539L105.15 62.5827ZM150 25L130.399 32.6812L189.118 91.2555C193.923 82.3715 195.227 73.0859 194.968 64.9235L158.145 28.1918L150 25Z" fill="url(#paint13_linear_22_4971)"/>
<defs>
<filter id="filter0_d_22_4971" x="0" y="83" width="300" height="427" filterUnits="userSpaceOnUse" color-interpolation-filters="sRGB">
<feFlood flood-opacity="0" result="BackgroundImageFix"/>
<feColorMatrix in="SourceAlpha" type="matrix" values="0 0 0 0 0 0 0 0 0 0 0 0 0 0 0 0 0 0 127 0" result="hardAlpha"/>
<feOffset dy="2"/>
<feGaussianBlur stdDeviation="5"/>
<feComposite in2="hardAlpha" operator="out"/>
<feColorMatrix type="matrix" values="0 0 0 0 1 0 0 0 0 1 0 0 0 0 1 0 0 0 0.25 0"/>
<feBlend mode="normal" in2="BackgroundImageFix" result="effect1_dropShadow_22_4971"/>
<feBlend mode="normal" in="SourceGraphic" in2="effect1_dropShadow_22_4971" result="shape"/>
</filter>
<filter id="filter1_dd_22_4971" x="52.5" y="424" width="195" height="60" filterUnits="userSpaceOnUse" color-interpolation-filters="sRGB">
<feFlood flood-opacity="0" result="BackgroundImageFix"/>
<feColorMatrix in="SourceAlpha" type="matrix" values="0 0 0 0 0 0 0 0 0 0 0 0 0 0 0 0 0 0 127 0" result="hardAlpha"/>
<feOffset dy="4"/>
<feGaussianBlur stdDeviation="3"/>
<feColorMatrix type="matrix" values="0 0 0 0 0 0 0 0 0 0 0 0 0 0 0 0 0 0 0.1 0"/>
<feBlend mode="normal" in2="BackgroundImageFix" result="effect1_dropShadow_22_4971"/>
<feColorMatrix in="SourceAlpha" type="matrix" values="0 0 0 0 0 0 0 0 0 0 0 0 0 0 0 0 0 0 127 0" result="hardAlpha"/>
<feOffset dy="2"/>
<feGaussianBlur stdDeviation="2"/>
<feColorMatrix type="matrix" values="0 0 0 0 0 0 0 0 0 0 0 0 0 0 0 0 0 0 0.06 0"/>
<feBlend mode="normal" in2="effect1_dropShadow_22_4971" result="effect2_dropShadow_22_4971"/>
<feBlend mode="normal" in="SourceGraphic" in2="effect2_dropShadow_22_4971" result="shape"/>
</filter>
<linearGradient id="paint0_linear_22_4971" x1="91.6359" y1="-18.5714" x2="184.224" y2="120.155" gradientUnits="userSpaceOnUse">
<stop stop-color="#AF6517"/>
<stop offset="0.257" stop-color="#E0A03B"/>
<stop offset="0.48" stop-color="#E9FF88"/>
<stop offset="0.6391" stop-color="#E0A03B"/>
<stop offset="1" stop-color="#88390B"/>
</linearGradient>
<linearGradient id="paint1_linear_22_4971" x1="130.615" y1="36.9719" x2="111.773" y2="59.6045" gradientUnits="userSpaceOnUse">
<stop stop-color="#AF6517"/>
<stop offset="0.257" stop-color="#E0A03B"/>
<stop offset="0.48" stop-color="#E9FF88"/>
<stop offset="0.6391" stop-color="#E0A03B"/>
<stop offset="1" stop-color="#88390B"/>
</linearGradient>
<linearGradient id="paint2_linear_22_4971" x1="173.092" y1="42.1899" x2="185.603" y2="58.5377" gradientUnits="userSpaceOnUse">
<stop stop-color="#AF6517"/>
<stop offset="0.257" stop-color="#E0A03B"/>
<stop offset="0.48" stop-color="#E9FF88"/>
<stop offset="0.6391" stop-color="#E0A03B"/>
<stop offset="1" stop-color="#88390B"/>
</linearGradient>
<linearGradient id="paint3_linear_22_4971" x1="192.388" y1="8.55944" x2="167.696" y2="115.878" gradientUnits="userSpaceOnUse">
<stop stop-color="#AF6517"/>
<stop offset="0.257" stop-color="#E0A03B"/>
<stop offset="0.48" stop-color="#E9FF88"/>
<stop offset="0.6391" stop-color="#E0A03B"/>
<stop offset="1" stop-color="#88390B"/>
</linearGradient>
<linearGradient id="paint4_linear_22_4971" x1="74.2272" y1="4.75007" x2="266.621" y2="173.303" gradientUnits="userSpaceOnUse">
<stop stop-color="#AF6517"/>
<stop offset="0.257" stop-color="#E0A03B"/>
<stop offset="0.48" stop-color="#E9FF88"/>
<stop offset="0.6391" stop-color="#E0A03B"/>
<stop offset="1" stop-color="#88390B"/>
</linearGradient>
<linearGradient id="paint5_linear_22_4971" x1="108.384" y1="13.1571" x2="197.993" y2="44.5604" gradientUnits="userSpaceOnUse">
<stop stop-color="#AF6517"/>
<stop offset="0.257" stop-color="#E0A03B"/>
<stop offset="0.48" stop-color="#E9FF88"/>
<stop offset="0.6391" stop-color="#E0A03B"/>
<stop offset="1" stop-color="#88390B"/>
</linearGradient>
<linearGradient id="paint6_linear_22_4971" x1="120.441" y1="68.106" x2="193.604" y2="81.8736" gradientUnits="userSpaceOnUse">
<stop stop-color="#AF6517"/>
<stop offset="0.257" stop-color="#E0A03B"/>
<stop offset="0.48" stop-color="#E9FF88"/>
<stop offset="0.6391" stop-color="#E0A03B"/>
<stop offset="1" stop-color="#88390B"/>
</linearGradient>
<linearGradient id="paint7_linear_22_4971" x1="115.004" y1="49.4806" x2="188.148" y2="104.654" gradientUnits="userSpaceOnUse">
<stop stop-color="#AF6517"/>
<stop offset="0.257" stop-color="#E0A03B"/>
<stop offset="0.48" stop-color="#E9FF88"/>
<stop offset="0.6391" stop-color="#E0A03B"/>
<stop offset="1" stop-color="#88390B"/>
</linearGradient>
<linearGradient id="paint8_linear_22_4971" x1="73.1867" y1="-2.99142" x2="142.534" y2="81.7932" gradientUnits="userSpaceOnUse">
<stop stop-color="#AF6517"/>
<stop offset="0.257" stop-color="#E0A03B"/>
<stop offset="0.48" stop-color="#E9FF88"/>
<stop offset="0.6391" stop-color="#E0A03B"/>
<stop offset="1" stop-color="#88390B"/>
</linearGradient>
<linearGradient id="paint9_linear_22_4971" x1="152.499" y1="59.3283" x2="167.413" y2="94.8564" gradientUnits="userSpaceOnUse">
<stop stop-color="#E0A03B"/>
<stop offset="1" stop-color="#88390B"/>
</linearGradient>
<linearGradient id="paint10_linear_22_4971" x1="154.03" y1="67.088" x2="189.466" y2="82.1823" gradientUnits="userSpaceOnUse">
<stop stop-color="#AF6517"/>
<stop offset="0.257" stop-color="#E0A03B"/>
<stop offset="0.48" stop-color="#E9FF88"/>
<stop offset="0.6391" stop-color="#E0A03B"/>
<stop offset="1" stop-color="#88390B"/>
</linearGradient>
<linearGradient id="paint11_linear_22_4971" x1="114.606" y1="57.251" x2="141.274" y2="71.8368" gradientUnits="userSpaceOnUse">
<stop stop-color="#AF6517"/>
<stop offset="0.257" stop-color="#E0A03B"/>
<stop offset="0.48" stop-color="#E9FF88"/>
<stop offset="0.6391" stop-color="#E0A03B"/>
<stop offset="1" stop-color="#88390B"/>
</linearGradient>
<radialGradient id="paint12_radial_22_4971" cx="0" cy="0" r="1" gradientUnits="userSpaceOnUse" gradientTransform="translate(170.286 77.2428) rotate(10.5073) scale(2.80414 9.66995)">
<stop stop-color="white"/>
<stop offset="1" stop-color="white" stop-opacity="0"/>
</radialGradient>
<linearGradient id="paint13_linear_22_4971" x1="98.9852" y1="70.3551" x2="199.258" y2="71.1062" gradientUnits="userSpaceOnUse">
<stop stop-color="white"/>
<stop offset="1" stop-color="#FAF7F5" stop-opacity="0"/>
</linearGradient>
</defs>
</svg>
