<svg width="300" height="427" viewBox="0 0 300 427" fill="none" xmlns="http://www.w3.org/2000/svg">
<g filter="url(#filter0_d_22_4735)">
<path fill-rule="evenodd" clip-rule="evenodd" d="M76.6047 15.4657C75.0482 11.1502 71.1125 8 66.5249 8H20C14.4771 8 10 12.4771 10 18V405C10 410.523 14.4771 415 20 415H280C285.523 415 290 410.523 290 405V18C290 12.4772 285.523 8 280 8H233.475C228.887 8 224.952 11.1502 223.395 15.4657C212.557 45.5172 183.787 67 150 67C116.213 67 87.4428 45.5172 76.6047 15.4657Z" fill="white"/>
</g>
<defs>
<filter id="filter0_d_22_4735" x="0" y="0" width="300" height="427" filterUnits="userSpaceOnUse" color-interpolation-filters="sRGB">
<feFlood flood-opacity="0" result="BackgroundImageFix"/>
<feColorMatrix in="SourceAlpha" type="matrix" values="0 0 0 0 0 0 0 0 0 0 0 0 0 0 0 0 0 0 127 0" result="hardAlpha"/>
<feOffset dy="2"/>
<feGaussianBlur stdDeviation="5"/>
<feComposite in2="hardAlpha" operator="out"/>
<feColorMatrix type="matrix" values="0 0 0 0 1 0 0 0 0 1 0 0 0 0 1 0 0 0 0.25 0"/>
<feBlend mode="normal" in2="BackgroundImageFix" result="effect1_dropShadow_22_4735"/>
<feBlend mode="normal" in="SourceGraphic" in2="effect1_dropShadow_22_4735" result="shape"/>
</filter>
</defs>
</svg>
